# Created by FreeCAD <http://www.freecadweb.org>
v 77.161598 0.000000 2.000000
v 77.922379 -0.192210 2.000000
v 77.161598 0.000000 5.000000
v 77.922379 -0.192210 5.000000
v 78.703865 -0.263026 2.000000
v 78.703865 -0.263026 5.000000
v 79.486809 -0.210705 2.000000
v 79.486809 -0.210705 5.000000
v 80.251915 -0.036535 5.000000
v 80.251915 -0.036535 2.000000
v 80.980354 0.255195 2.000000
v 80.980354 0.255195 5.000000
v 81.654182 0.657299 2.000000
v 81.654182 0.657299 5.000000
v 82.256805 1.159874 2.000000
v 82.256805 1.159874 5.000000
v 82.773376 1.750541 2.000000
v 82.773376 1.750541 5.000000
v 83.191170 2.414753 2.000000
v 83.191170 2.414753 5.000000
v 83.499901 3.136152 2.000000
v 83.499901 3.136152 5.000000
v 83.691963 3.896969 2.000000
v 83.691963 3.896969 5.000000
v 83.762634 4.678465 2.000000
v 83.762634 4.678465 5.000000
v 83.710167 5.461395 2.000000
v 83.710167 5.461395 5.000000
v 83.535851 6.226473 5.000000
v 83.535851 6.226473 2.000000
v 83.243980 6.954858 2.000000
v 83.243980 6.954858 5.000000
v 82.841751 7.628610 5.000000
v 82.841751 7.628610 2.000000
v 82.339058 8.231133 5.000000
v 82.339058 8.231133 2.000000
v 81.748299 8.747591 2.000000
v 81.748299 8.747591 5.000000
v 81.084007 9.165260 5.000000
v 81.084007 9.165260 2.000000
v 80.362549 9.473856 2.000000
v 80.362549 9.473856 5.000000
v 76.776222 10.748765 5.000000
v 72.809402 12.050856 2.000000
v 72.809402 12.050856 5.000000
v 76.776222 10.748765 2.000000
v 67.779274 13.581411 5.000000
v 67.779274 13.581411 2.000000
v 63.312607 14.832370 2.000000
v 63.312607 14.832370 5.000000
v 60.683880 15.510856 2.000000
v 60.683880 15.510856 5.000000
v 78.631027 10.103802 3.500000
v 59.466587 15.805660 3.500000
v 58.327740 16.066830 5.000000
v 58.327740 16.066830 2.000000
v 57.882698 16.016685 2.000000
v 57.882698 16.016685 5.000000
v 57.459972 15.868767 2.000000
v 57.459972 15.868767 5.000000
v 57.080761 15.630492 2.000000
v 57.080761 15.630492 5.000000
v 56.764076 15.313808 2.000000
v 56.764076 15.313808 5.000000
v 56.525803 14.934596 5.000000
v 56.525803 14.934596 2.000000
v 56.377884 14.511871 2.000000
v 56.377884 14.511871 5.000000
v 56.327740 14.066829 2.000000
v 56.327740 14.066829 5.000000
v 56.327740 4.133219 2.000000
v 56.327740 4.133219 5.000000
v 56.372978 3.710224 2.000000
v 56.372978 3.710224 5.000000
v 56.506657 3.306365 2.000000
v 56.506657 3.306365 5.000000
v 56.722725 2.939914 2.000000
v 56.722725 2.939914 5.000000
v 57.011410 2.627451 2.000000
v 57.011410 2.627451 5.000000
v 57.359650 2.383113 2.000000
v 57.359650 2.383113 5.000000
v 57.751690 2.217954 2.000000
v 57.751690 2.217954 5.000000
v 63.342983 2.024281 5.000000
v 65.577499 1.870474 2.000000
v 65.577499 1.870474 5.000000
v 63.342983 2.024281 2.000000
v 66.797516 1.749578 3.500000
v 68.190666 1.578429 5.000000
v 68.190666 1.578429 2.000000
v 69.572243 1.378980 3.500000
v 71.189980 1.117161 5.000000
v 71.189980 1.117161 2.000000
v 72.445595 0.898344 3.500000
v 73.848831 0.641695 5.000000
v 73.848831 0.641695 2.000000
v 75.415543 0.343488 3.500000
v 59.461655 2.163912 2.750000
v 59.461655 2.163912 4.250000
v 60.917698 2.118917 3.500000
v 61.571980 2.097328 4.625000
v 61.571980 2.097328 2.375000
vn -0.244951 -0.969535 0.000000
vn -0.244951 -0.969535 0.000000
vn -0.090248 -0.995919 0.000000
vn -0.090248 -0.995919 0.000000
vn 0.066678 -0.997775 0.000000
vn 0.221964 -0.975055 0.000000
vn 0.066678 -0.997775 0.000000
vn 0.221964 -0.975055 0.000000
vn 0.371780 -0.928321 0.000000
vn 0.371780 -0.928321 0.000000
vn 0.512439 -0.858723 0.000000
vn 0.512439 -0.858723 0.000000
vn 0.640477 -0.767978 0.000000
vn 0.640477 -0.767978 0.000000
vn 0.752743 -0.658315 0.000000
vn 0.752743 -0.658315 0.000000
vn 0.846471 -0.532435 0.000000
vn 0.846471 -0.532435 0.000000
vn 0.919348 -0.393446 0.000000
vn 0.919348 -0.393446 0.000000
vn 0.969583 -0.244764 0.000000
vn 0.969583 -0.244764 0.000000
vn 0.995936 -0.090063 0.000000
vn 0.995936 -0.090063 0.000000
vn 0.997762 0.066864 0.000000
vn 0.975013 0.222148 0.000000
vn 0.997762 0.066864 -0.000000
vn 0.975013 0.222148 0.000000
vn 0.928250 0.371958 -0.000000
vn 0.928250 0.371958 0.000000
vn 0.858627 0.512600 0.000000
vn 0.858627 0.512600 0.000000
vn 0.767851 0.640628 0.000000
vn 0.767851 0.640628 0.000000
vn 0.658175 0.752865 -0.000000
vn 0.658175 0.752865 0.000000
vn 0.532276 0.846571 0.000000
vn 0.532276 0.846571 0.000000
vn 0.393272 0.919422 0.000000
vn 0.393272 0.919422 -0.000000
vn 0.311874 0.950124 0.000000
vn 0.311874 0.950124 -0.000000
vn 0.291100 0.956693 -0.000000
vn 0.291100 0.956693 0.000000
vn 0.269688 0.962948 0.000000
vn 0.269688 0.962948 -0.000000
vn 0.249914 0.968268 0.000000
vn 0.249914 0.968268 -0.000000
vn 0.341888 0.939741 -0.000000
vn 0.334942 0.942195 0.009048
vn 0.334942 0.942195 -0.009048
vn 0.328436 0.944526 0.000000
vn 0.229658 0.973259 0.004907
vn 0.223525 0.974698 0.000000
vn 0.229658 0.973259 -0.004907
vn 0.235376 0.971904 -0.000000
vn -0.111965 0.993712 0.000000
vn -0.111965 0.993712 0.000000
vn -0.330280 0.943883 0.000000
vn -0.330280 0.943883 0.000000
vn -0.532032 0.846724 0.000000
vn -0.532032 0.846724 0.000000
vn -0.707106 0.707108 0.000000
vn -0.846725 0.532030 0.000000
vn -0.707106 0.707108 0.000000
vn -0.846725 0.532030 0.000000
vn -0.943883 0.330281 0.000000
vn -0.943883 0.330281 0.000000
vn -0.993712 0.111964 0.000000
vn -0.993712 0.111964 0.000000
vn -1.000000 -0.000000 0.000000
vn -1.000000 0.000000 0.000000
vn -0.994330 -0.106341 0.000000
vn -0.994330 -0.106341 0.000000
vn -0.949345 -0.314236 0.000000
vn -0.949345 -0.314236 0.000000
vn -0.861411 -0.507909 0.000000
vn -0.861411 -0.507909 0.000000
vn -0.734502 -0.678607 0.000000
vn -0.734502 -0.678607 0.000000
vn -0.574362 -0.818602 0.000000
vn -0.574362 -0.818602 0.000000
vn -0.388236 -0.921560 0.000000
vn -0.388236 -0.921560 0.000000
vn -0.068670 -0.997639 0.000000
vn -0.068670 -0.997639 0.000000
vn -0.111061 -0.993761 -0.010237
vn -0.111061 -0.993761 0.010237
vn -0.098611 -0.995126 0.000000
vn -0.121933 -0.992538 -0.000000
vn -0.151999 -0.988343 -0.008582
vn -0.151999 -0.988343 0.008582
vn -0.142883 -0.989740 0.000000
vn -0.176030 -0.984378 -0.003752
vn -0.176030 -0.984378 0.003752
vn -0.164979 -0.986280 0.005777
vn -0.164979 -0.986280 -0.005777
vn -0.190168 -0.981746 -0.003450
vn -0.193023 -0.981194 -0.000000
vn -0.190168 -0.981746 0.003450
vn -0.183645 -0.982986 0.003610
vn -0.183645 -0.982986 -0.003610
vn -0.031588 -0.999501 0.000000
vn -0.030888 -0.999523 -0.000000
vn -0.031588 -0.999501 0.000000
vn -0.034601 -0.998915 -0.031174
vn -0.031369 -0.999507 -0.000936
vn -0.031551 -0.999502 0.000086
vn -0.034601 -0.998915 0.031174
vn -0.031369 -0.999507 0.000936
vn -0.041211 -0.999150 -0.000000
vn -0.041211 -0.999150 -0.000000
vn -0.031551 -0.999502 -0.000086
vn -0.032978 -0.999456 0.000000
vn 0.000000 0.000000 -1.000000
vn 0.000000 0.000000 -1.000000
vn 0.000000 0.000000 -1.000000
vn 0.000000 0.000000 -1.000000
vn 0.000000 0.000000 -1.000000
vn 0.000000 0.000000 -1.000000
vn 0.000000 -0.000000 -1.000000
vn 0.000000 -0.000000 -1.000000
vn 0.000000 -0.000000 -1.000000
vn 0.000000 -0.000000 -1.000000
vn 0.000000 -0.000000 -1.000000
vn 0.000000 -0.000000 -1.000000
vn 0.000000 0.000000 -1.000000
vn 0.000000 -0.000000 -1.000000
vn 0.000000 0.000000 -1.000000
vn 0.000000 -0.000000 -1.000000
vn 0.000000 0.000000 -1.000000
vn 0.000000 0.000000 -1.000000
vn 0.000000 0.000000 -1.000000
vn 0.000000 0.000000 -1.000000
vn 0.000000 0.000000 -1.000000
vn 0.000000 0.000000 -1.000000
vn 0.000000 0.000000 -1.000000
vn 0.000000 0.000000 -1.000000
vn 0.000000 0.000000 -1.000000
vn 0.000000 0.000000 -1.000000
vn 0.000000 0.000000 -1.000000
vn 0.000000 0.000000 -1.000000
vn 0.000000 0.000000 -1.000000
vn 0.000000 -0.000000 -1.000000
vn 0.000000 0.000000 -1.000000
vn 0.000000 0.000000 -1.000000
vn 0.000000 0.000000 -1.000000
vn 0.000000 0.000000 -1.000000
vn 0.000000 0.000000 -1.000000
vn 0.000000 0.000000 -1.000000
vn 0.000000 -0.000000 -1.000000
vn 0.000000 0.000000 -1.000000
vn 0.000000 0.000000 -1.000000
vn 0.000000 -0.000000 -1.000000
vn 0.000000 0.000000 -1.000000
vn 0.000000 0.000000 -1.000000
vn 0.000000 0.000000 -1.000000
vn 0.000000 -0.000000 -1.000000
vn 0.000000 0.000000 1.000000
vn 0.000000 0.000000 1.000000
vn 0.000000 0.000000 1.000000
vn 0.000000 0.000000 1.000000
vn 0.000000 0.000000 1.000000
vn 0.000000 0.000000 1.000000
vn 0.000000 0.000000 1.000000
vn 0.000000 0.000000 1.000000
vn 0.000000 0.000000 1.000000
vn 0.000000 0.000000 1.000000
vn 0.000000 0.000000 1.000000
vn 0.000000 0.000000 1.000000
vn 0.000000 0.000000 1.000000
vn 0.000000 0.000000 1.000000
vn 0.000000 0.000000 1.000000
vn 0.000000 0.000000 1.000000
vn 0.000000 0.000000 1.000000
vn 0.000000 0.000000 1.000000
vn 0.000000 0.000000 1.000000
vn 0.000000 0.000000 1.000000
vn 0.000000 0.000000 1.000000
vn 0.000000 0.000000 1.000000
vn 0.000000 0.000000 1.000000
vn 0.000000 0.000000 1.000000
vn 0.000000 0.000000 1.000000
vn 0.000000 0.000000 1.000000
vn 0.000000 0.000000 1.000000
vn 0.000000 0.000000 1.000000
vn 0.000000 0.000000 1.000000
vn 0.000000 0.000000 1.000000
vn 0.000000 0.000000 1.000000
vn 0.000000 0.000000 1.000000
vn 0.000000 0.000000 1.000000
vn 0.000000 0.000000 1.000000
vn 0.000000 0.000000 1.000000
vn 0.000000 0.000000 1.000000
vn 0.000000 0.000000 1.000000
vn 0.000000 0.000000 1.000000
vn 0.000000 0.000000 1.000000
vn 0.000000 0.000000 1.000000
vn 0.000000 0.000000 1.000000
vn 0.000000 0.000000 1.000000
vn 0.000000 0.000000 1.000000
vn 0.000000 0.000000 1.000000
f 1//1 2//1 3//1
f 3//2 2//2 4//2
f 4//3 5//3 6//3
f 2//4 5//4 4//4
f 6//5 7//5 8//5
f 8//6 7//6 9//6
f 5//7 7//7 6//7
f 7//8 10//8 9//8
f 9//9 11//9 12//9
f 10//10 11//10 9//10
f 12//11 13//11 14//11
f 11//12 13//12 12//12
f 14//13 15//13 16//13
f 13//14 15//14 14//14
f 16//15 17//15 18//15
f 15//16 17//16 16//16
f 18//17 19//17 20//17
f 17//18 19//18 18//18
f 20//19 21//19 22//19
f 19//20 21//20 20//20
f 22//21 23//21 24//21
f 21//22 23//22 22//22
f 24//23 25//23 26//23
f 23//24 25//24 24//24
f 26//25 27//25 28//25
f 28//26 27//26 29//26
f 25//27 27//27 26//27
f 27//28 30//28 29//28
f 30//29 31//29 29//29
f 29//30 31//30 32//30
f 32//31 31//31 33//31
f 31//32 34//32 33//32
f 33//33 34//33 35//33
f 34//34 36//34 35//34
f 36//35 37//35 35//35
f 35//36 37//36 38//36
f 38//37 37//37 39//37
f 37//38 40//38 39//38
f 39//39 41//39 42//39
f 40//40 41//40 39//40
f 43//41 44//41 45//41
f 46//42 44//42 43//42
f 44//43 47//43 45//43
f 44//44 48//44 47//44
f 47//45 49//45 50//45
f 48//46 49//46 47//46
f 50//47 51//47 52//47
f 49//48 51//48 50//48
f 41//49 53//49 42//49
f 42//50 53//50 43//50
f 46//51 53//51 41//51
f 43//52 53//52 46//52
f 52//53 54//53 55//53
f 55//54 54//54 56//54
f 56//55 54//55 51//55
f 51//56 54//56 52//56
f 56//57 57//57 55//57
f 55//58 57//58 58//58
f 58//59 59//59 60//59
f 57//60 59//60 58//60
f 60//61 61//61 62//61
f 59//62 61//62 60//62
f 62//63 63//63 64//63
f 64//64 63//64 65//64
f 61//65 63//65 62//65
f 63//66 66//66 65//66
f 65//67 67//67 68//67
f 66//68 67//68 65//68
f 68//69 69//69 70//69
f 67//70 69//70 68//70
f 70//71 71//71 72//71
f 69//72 71//72 70//72
f 71//73 73//73 72//73
f 72//74 73//74 74//74
f 74//75 75//75 76//75
f 73//76 75//76 74//76
f 76//77 77//77 78//77
f 75//78 77//78 76//78
f 78//79 79//79 80//79
f 77//80 79//80 78//80
f 80//81 81//81 82//81
f 79//82 81//82 80//82
f 82//83 83//83 84//83
f 81//84 83//84 82//84
f 85//85 86//85 87//85
f 88//86 86//86 85//86
f 87//87 89//87 90//87
f 91//88 89//88 86//88
f 86//89 89//89 87//89
f 90//90 89//90 91//90
f 90//91 92//91 93//91
f 94//92 92//92 91//92
f 91//93 92//93 90//93
f 93//94 95//94 96//94
f 97//95 95//95 94//95
f 92//96 95//96 93//96
f 94//97 95//97 92//97
f 96//98 98//98 3//98
f 3//99 98//99 1//99
f 1//100 98//100 97//100
f 95//101 98//101 96//101
f 97//102 98//102 95//102
f 83//103 99//103 84//103
f 100//104 99//104 101//104
f 84//105 99//105 100//105
f 84//106 102//106 85//106
f 101//107 102//107 100//107
f 100//108 102//108 84//108
f 88//109 103//109 83//109
f 99//110 103//110 101//110
f 85//111 103//111 88//111
f 102//112 103//112 85//112
f 83//113 103//113 99//113
f 101//114 103//114 102//114
f 75//115 83//115 77//115
f 77//116 83//116 79//116
f 79//117 83//117 81//117
f 73//118 71//118 75//118
f 75//119 71//119 83//119
f 71//120 88//120 83//120
f 67//121 66//121 69//121
f 66//122 63//122 69//122
f 63//123 61//123 69//123
f 61//124 59//124 69//124
f 59//125 57//125 69//125
f 57//126 56//126 69//126
f 69//127 51//127 71//127
f 56//128 51//128 69//128
f 71//129 49//129 88//129
f 51//130 49//130 71//130
f 2//131 11//131 5//131
f 5//132 11//132 7//132
f 7//133 11//133 10//133
f 88//134 48//134 86//134
f 86//135 48//135 91//135
f 49//136 48//136 88//136
f 11//137 15//137 13//137
f 11//138 17//138 15//138
f 91//139 44//139 94//139
f 48//140 44//140 91//140
f 11//141 19//141 17//141
f 2//142 21//142 11//142
f 11//143 21//143 19//143
f 44//144 46//144 94//144
f 94//145 46//145 97//145
f 97//146 46//146 1//146
f 2//147 23//147 21//147
f 25//148 30//148 27//148
f 46//149 41//149 1//149
f 1//150 40//150 2//150
f 41//151 40//151 1//151
f 30//152 34//152 31//152
f 25//153 34//153 30//153
f 40//154 37//154 2//154
f 25//155 36//155 34//155
f 23//156 36//156 25//156
f 2//157 36//157 23//157
f 37//158 36//158 2//158
f 84//159 76//159 78//159
f 84//160 78//160 80//160
f 84//161 80//161 82//161
f 72//162 74//162 76//162
f 72//163 76//163 84//163
f 85//164 72//164 84//164
f 65//165 68//165 70//165
f 64//166 65//166 70//166
f 62//167 64//167 70//167
f 60//168 62//168 70//168
f 58//169 60//169 70//169
f 55//170 58//170 70//170
f 52//171 70//171 72//171
f 52//172 55//172 70//172
f 50//173 72//173 85//173
f 50//174 52//174 72//174
f 12//175 4//175 6//175
f 12//176 6//176 8//176
f 12//177 8//177 9//177
f 47//178 85//178 87//178
f 47//179 87//179 90//179
f 47//180 50//180 85//180
f 16//181 12//181 14//181
f 18//182 12//182 16//182
f 45//183 90//183 93//183
f 45//184 47//184 90//184
f 20//185 12//185 18//185
f 22//186 4//186 12//186
f 22//187 12//187 20//187
f 43//188 45//188 93//188
f 43//189 93//189 96//189
f 43//190 96//190 3//190
f 24//191 4//191 22//191
f 29//192 26//192 28//192
f 42//193 43//193 3//193
f 39//194 3//194 4//194
f 39//195 42//195 3//195
f 33//196 29//196 32//196
f 33//197 26//197 29//197
f 38//198 39//198 4//198
f 35//199 26//199 33//199
f 35//200 24//200 26//200
f 35//201 4//201 24//201
f 35//202 38//202 4//202
