# Blender 3.4.1
# www.blender.org
mtllib neck2.mtl
o neck2
v 5.563675 -16.673813 11.992264
v 5.563675 16.826187 11.992266
v 4.563675 16.826187 11.992266
v 4.563675 -16.673813 11.992264
v 6.187164 -16.673813 11.774096
v 5.997559 -16.673813 11.893232
v 6.345505 -16.673813 11.615753
v 6.538605 -16.673813 11.214785
v 6.464645 -16.673813 11.426147
v 5.786198 -16.673813 11.967192
v 6.563675 -16.673813 10.992264
v 4.563675 -16.673813 10.492264
v 6.563675 -16.673813 10.492264
v -14.936325 -16.673813 11.992264
v -14.936325 16.826187 11.992266
v 5.997559 16.826187 11.893234
v 6.187164 16.826187 11.774097
v 6.345505 16.826187 11.615755
v 6.538605 16.826187 11.214787
v 6.464645 16.826187 11.426149
v 5.786198 16.826187 11.967194
v 6.563675 16.826187 10.992266
v 4.563675 16.826187 10.492266
v 6.563675 16.826187 10.492266
v 18.563675 16.826187 11.992266
v 18.563675 -16.673813 11.992264
v 4.845505 -16.673813 10.115753
v 4.687164 -16.673813 10.274096
v 4.964645 -16.673813 9.926147
v 4.497559 -16.673813 10.393232
v 5.038605 -16.673813 9.714785
v 4.286198 -16.673813 10.467192
v 4.063675 -16.673813 10.492264
v 5.063675 -16.673813 9.492264
v 5.063675 -16.673813 -8.007736
v -13.436325 -16.673813 10.492264
v 6.563675 -16.673813 -9.507736
v -13.658846 -16.673813 10.467192
v 5.038605 -16.673813 -8.230257
v 4.964645 -16.673813 -8.441620
v -13.870209 -16.673813 10.393232
v -15.158846 -16.673813 11.967192
v -15.370209 -16.673813 11.893232
v 4.845505 -16.673813 -8.631225
v 6.538605 -16.673813 -9.730257
v 6.345505 -16.673813 -10.131225
v 6.464645 -16.673813 -9.941621
v -15.559814 -16.673813 11.774096
v -14.059814 -16.673813 10.274096
v 4.687164 -16.673813 -8.789568
v -14.218157 -16.673813 10.115753
v -15.837294 -16.673813 11.426147
v -15.718157 -16.673813 11.615753
v 5.997559 -16.673813 -10.408706
v 6.187164 -16.673813 -10.289569
v -14.337294 -16.673813 9.926147
v -15.936325 -16.673813 10.992264
v -14.411253 -16.673813 9.714785
v -15.911253 -16.673813 11.214785
v 4.497559 -16.673813 -8.908706
v 5.563675 -16.673813 -10.507736
v 4.286198 -16.673813 -8.982664
v 4.063675 -16.673813 -9.007736
v 5.786198 -16.673813 -10.482664
v -14.436325 -16.673813 9.492264
v -13.436325 -16.673813 -9.007736
v -15.936325 -16.673813 -9.507736
v -14.436325 -16.673813 -8.007736
v -14.218157 -16.673813 -8.631225
v -14.059814 -16.673813 -8.789568
v -14.337294 -16.673813 -8.441620
v -14.411253 -16.673813 -8.230257
v -13.658846 -16.673813 -8.982664
v -14.936325 -16.673813 -10.507736
v -13.870209 -16.673813 -8.908706
v -15.911253 -16.673813 -9.730257
v -15.837294 -16.673813 -9.941621
v -15.559814 -16.673813 -10.289569
v -15.158846 -16.673813 -10.482664
v -15.370209 -16.673813 -10.408706
v -15.718157 -16.673813 -10.131225
v 18.563675 -16.673813 10.492264
v -15.936325 16.826187 10.992266
v -15.911253 16.826187 11.214787
v -15.837294 16.826187 11.426149
v -15.718157 16.826187 11.615755
v -15.559814 16.826187 11.774097
v -15.370209 16.826187 11.893234
v -15.158846 16.826187 11.967194
v 4.845505 16.826187 10.115755
v 4.687164 16.826187 10.274097
v 4.964645 16.826187 9.926149
v 4.497559 16.826187 10.393234
v 5.038605 16.826187 9.714787
v 4.286198 16.826187 10.467194
v 4.063675 16.826187 10.492266
v 5.063675 16.826187 9.492266
v 5.063675 16.826187 -8.007734
v -13.436325 16.826187 10.492266
v 6.563675 16.826187 -9.507734
v -13.658846 16.826187 10.467194
v 5.038605 16.826187 -8.230255
v 4.964645 16.826187 -8.441618
v -13.870209 16.826187 10.393234
v 4.845505 16.826187 -8.631223
v 6.345505 16.826187 -10.131223
v 6.538605 16.826187 -9.730255
v 6.464645 16.826187 -9.941619
v -14.059814 16.826187 10.274097
v 4.687164 16.826187 -8.789566
v -14.218157 16.826187 10.115755
v 5.997559 16.826187 -10.408704
v 6.187164 16.826187 -10.289567
v -14.337294 16.826187 9.926149
v -14.411253 16.826187 9.714787
v 5.563675 16.826187 -10.507734
v 4.497559 16.826187 -8.908704
v 4.286198 16.826187 -8.982662
v 4.063675 16.826187 -9.007734
v 5.786198 16.826187 -10.482662
v -14.436325 16.826187 9.492266
v -13.436325 16.826187 -9.007734
v -15.936325 16.826187 -9.507734
v -14.436325 16.826187 -8.007734
v -14.218157 16.826187 -8.631223
v -14.059814 16.826187 -8.789566
v -14.337294 16.826187 -8.441618
v -14.411253 16.826187 -8.230255
v -14.936325 16.826187 -10.507734
v -13.658846 16.826187 -8.982662
v -13.870209 16.826187 -8.908704
v -15.837294 16.826187 -9.941619
v -15.911253 16.826187 -9.730255
v -15.559814 16.826187 -10.289567
v -15.158846 16.826187 -10.482662
v -15.370209 16.826187 -10.408704
v -15.718157 16.826187 -10.131223
v 18.563675 16.826187 10.492266
v 18.563675 -16.673813 10.492264
v 18.563675 -16.673813 11.992264
v 4.563675 11.326187 -10.507734
v 5.563675 11.326187 -10.507734
v 4.563675 -10.673813 -10.507735
v 5.563675 -10.673813 -10.507735
v 6.563675 -10.673813 -9.507735
v 6.538605 -10.673813 -9.730256
v 6.464645 -10.673813 -9.941620
v 6.345505 -10.673813 -10.131224
v 6.187164 -10.673813 -10.289568
v 5.997559 -10.673813 -10.408705
v 5.786198 -10.673813 -10.482663
v 6.563675 -10.673813 -9.007735
v 6.563675 -10.673813 10.492265
v 1.563675 -10.673813 10.492265
v 4.063675 -10.673813 10.492265
v 1.563675 11.326187 10.492266
v 4.063675 11.326187 10.492266
v 5.063675 -10.673813 9.492265
v 5.038605 -10.673813 9.714786
v 4.964645 -10.673813 9.926148
v 4.845505 -10.673813 10.115754
v 4.687164 -10.673813 10.274096
v 4.497559 -10.673813 10.393233
v 4.286198 -10.673813 10.467193
v 5.063675 -10.673813 -8.007735
v 4.286198 -10.673813 -8.982663
v 4.063675 -10.673813 -9.007735
v 4.497559 -10.673813 -8.908705
v 4.687164 -10.673813 -8.789567
v 4.845505 -10.673813 -8.631224
v 4.964645 -10.673813 -8.441619
v 5.038605 -10.673813 -8.230256
v 1.563675 -10.673813 -9.007735
v 4.063675 11.326187 -9.007734
v 1.563675 11.326187 -9.007734
v 6.563675 11.326187 10.492266
v 6.563675 11.326187 -9.507734
v 6.538605 11.326187 -9.730255
v 6.464645 11.326187 -9.941619
v 6.345505 11.326187 -10.131223
v 6.187164 11.326187 -10.289567
v 5.997559 11.326187 -10.408704
v 5.786198 11.326187 -10.482662
v 6.563675 11.326187 -9.007734
v 5.063675 11.326187 9.492266
v 5.038605 11.326187 9.714787
v 4.964645 11.326187 9.926149
v 4.845505 11.326187 10.115755
v 4.687164 11.326187 10.274097
v 4.497559 11.326187 10.393234
v 4.286198 11.326187 10.467194
v 5.063675 11.326187 -8.007734
v 4.286198 11.326187 -8.982662
v 4.497559 11.326187 -8.908704
v 4.687164 11.326187 -8.789566
v 4.845505 11.326187 -8.631223
v 4.964645 11.326187 -8.441618
v 5.038605 11.326187 -8.230255
v 18.563675 -10.673813 -9.007735
v 18.563675 -10.673813 -10.507735
v 4.563675 -10.673813 -9.007735
v 4.563675 -10.673813 10.492265
v 4.563675 11.326187 10.492266
v 18.563675 11.326187 -10.507734
v 18.563675 11.326187 -9.007734
v 4.563675 11.326187 -9.007734
v 18.563675 -10.673813 -10.507735
v 18.563675 11.326187 -10.507734
v 18.563675 -10.673813 -9.007735
v 18.563675 11.326187 -9.007734
vn -0.0000 -0.0000 1.0000
vn -0.0000 -1.0000 0.0001
vn -0.0000 -1.0000 -0.0000
vn -0.0000 1.0000 -0.0000
vn -0.0000 -1.0000 0.0005
vn -0.9937 -0.0000 0.1120
vn -0.9439 -0.0000 0.3303
vn -0.8467 -0.0000 0.5320
vn -0.7071 -0.0000 0.7071
vn -0.5320 -0.0000 0.8467
vn -0.3303 -0.0000 0.9439
vn -0.1120 -0.0000 0.9937
vn -0.0000 1.0000 -0.0005
vn -0.0000 1.0000 0.0005
vn -0.0000 1.0000 0.0001
vn 1.0000 -0.0000 -0.0000
vn -1.0000 -0.0000 -0.0000
vn -0.1120 -0.0000 -0.9937
vn -0.3303 -0.0000 -0.9439
vn -0.5320 -0.0000 -0.8467
vn -0.7071 -0.0000 -0.7071
vn -0.8467 -0.0000 -0.5320
vn -0.9439 -0.0000 -0.3303
vn -0.9937 -0.0000 -0.1120
vn -0.0000 -0.0000 -1.0000
vn 0.9937 -0.0000 -0.1120
vn 0.9439 -0.0000 -0.3303
vn 0.8467 -0.0000 -0.5320
vn 0.7071 -0.0000 -0.7071
vn 0.3303 -0.0000 -0.9439
vn 0.5320 -0.0000 -0.8467
vn 0.1120 -0.0000 -0.9937
vn 0.9937 -0.0000 0.1120
vn 0.9439 -0.0000 0.3303
vn 0.8467 -0.0000 0.5320
vn 0.5320 -0.0000 0.8467
vn 0.7071 -0.0000 0.7071
vn 0.3303 -0.0000 0.9439
vn 0.1120 -0.0000 0.9937
s 0
f 1//1 2//1 3//1
f 4//1 1//1 3//1
f 5//2 6//2 7//2
f 7//3 8//3 9//3
f 6//3 8//3 7//3
f 10//3 1//3 6//3
f 1//3 11//3 6//3
f 6//3 11//3 8//3
f 4//3 12//3 1//3
f 11//3 12//3 13//3
f 1//3 12//3 11//3
f 14//1 4//1 3//1
f 14//1 3//1 15//1
f 16//4 17//4 18//4
f 19//4 18//4 20//4
f 19//4 16//4 18//4
f 2//4 21//4 16//4
f 22//4 2//4 16//4
f 22//4 16//4 19//4
f 23//4 3//4 2//4
f 23//4 22//4 24//4
f 23//4 2//4 22//4
f 2//1 1//1 25//1
f 25//1 1//1 26//1
f 12//3 27//3 13//3
f 28//3 27//3 12//3
f 27//3 29//3 13//3
f 12//3 30//3 28//3
f 29//3 31//3 13//3
f 4//3 32//3 12//3
f 12//3 32//3 30//3
f 4//3 33//3 32//3
f 31//3 34//3 13//3
f 34//3 35//3 13//3
f 4//3 36//3 33//3
f 35//3 37//3 13//3
f 4//3 14//3 36//3
f 14//3 38//3 36//3
f 35//3 39//3 37//3
f 39//3 40//3 37//3
f 14//3 41//3 38//3
f 42//3 43//3 14//3
f 40//3 44//3 37//3
f 45//3 46//3 47//3
f 43//3 48//3 14//3
f 14//3 49//3 41//3
f 44//3 50//3 37//3
f 14//3 51//3 49//3
f 48//3 52//3 14//3
f 53//5 52//5 48//5
f 45//3 54//3 46//3
f 37//3 54//3 45//3
f 46//3 54//3 55//3
f 56//3 57//3 58//3
f 51//3 57//3 56//3
f 14//3 57//3 51//3
f 52//3 57//3 14//3
f 59//3 57//3 52//3
f 60//3 61//3 50//3
f 62//3 61//3 60//3
f 63//3 61//3 62//3
f 37//3 61//3 54//3
f 54//3 61//3 64//3
f 50//3 61//3 37//3
f 57//3 65//3 58//3
f 63//3 66//3 61//3
f 65//3 67//3 68//3
f 69//3 67//3 70//3
f 71//3 67//3 69//3
f 72//3 67//3 71//3
f 68//3 67//3 72//3
f 57//3 67//3 65//3
f 73//3 74//3 66//3
f 75//3 74//3 73//3
f 70//3 74//3 75//3
f 66//3 74//3 61//3
f 67//3 74//3 70//3
f 76//3 77//3 67//3
f 74//3 78//3 79//3
f 79//3 78//3 80//3
f 67//3 81//3 74//3
f 77//3 81//3 67//3
f 74//3 81//3 78//3
f 11//3 13//3 82//3
f 11//3 82//3 26//3
f 8//3 11//3 26//3
f 9//3 8//3 26//3
f 7//3 9//3 26//3
f 5//3 7//3 26//3
f 26//3 1//3 10//3
f 26//3 10//3 6//3
f 26//3 6//3 5//3
f 83//6 57//6 84//6
f 57//6 59//6 84//6
f 84//7 52//7 85//7
f 85//8 52//8 86//8
f 59//7 52//7 84//7
f 52//8 53//8 86//8
f 86//9 48//9 87//9
f 87//10 48//10 88//10
f 53//9 48//9 86//9
f 48//10 43//10 88//10
f 88//11 42//11 89//11
f 43//11 42//11 88//11
f 89//12 14//12 15//12
f 42//12 14//12 89//12
f 90//4 23//4 24//4
f 90//4 91//4 23//4
f 92//4 90//4 24//4
f 93//4 23//4 91//4
f 94//4 92//4 24//4
f 95//4 3//4 23//4
f 95//4 23//4 93//4
f 96//4 3//4 95//4
f 97//4 94//4 24//4
f 98//4 97//4 24//4
f 99//4 3//4 96//4
f 100//4 98//4 24//4
f 15//4 3//4 99//4
f 101//4 15//4 99//4
f 102//4 98//4 100//4
f 103//4 102//4 100//4
f 104//4 15//4 101//4
f 88//4 89//4 15//4
f 105//4 103//4 100//4
f 106//4 107//4 108//4
f 87//13 88//13 15//13
f 109//4 15//4 104//4
f 110//4 105//4 100//4
f 111//4 15//4 109//4
f 85//4 87//4 15//4
f 85//14 86//14 87//14
f 112//4 107//4 106//4
f 112//4 100//4 107//4
f 112//4 106//4 113//4
f 83//4 114//4 115//4
f 83//4 111//4 114//4
f 83//4 15//4 111//4
f 83//4 85//4 15//4
f 83//4 84//4 85//4
f 116//4 117//4 110//4
f 116//4 118//4 117//4
f 116//4 119//4 118//4
f 116//4 100//4 112//4
f 116//4 112//4 120//4
f 116//4 110//4 100//4
f 121//4 83//4 115//4
f 122//4 119//4 116//4
f 123//4 121//4 124//4
f 123//4 125//4 126//4
f 123//4 127//4 125//4
f 123//4 128//4 127//4
f 123//4 124//4 128//4
f 123//4 83//4 121//4
f 129//4 130//4 122//4
f 129//4 131//4 130//4
f 129//4 126//4 131//4
f 129//4 122//4 116//4
f 129//4 123//4 126//4
f 132//4 133//4 123//4
f 134//4 129//4 135//4
f 134//14 135//14 136//14
f 137//4 123//4 129//4
f 137//4 132//4 123//4
f 137//4 129//4 134//4
f 24//4 22//4 138//4
f 138//4 22//4 25//4
f 22//4 19//4 25//4
f 19//4 20//4 25//4
f 20//4 18//4 25//4
f 18//4 17//4 25//4
f 2//15 25//15 21//15
f 21//4 25//4 16//4
f 16//4 25//4 17//4
f 139//16 138//16 140//16
f 140//16 138//16 25//16
f 67//17 57//17 83//17
f 67//17 83//17 123//17
f 74//18 79//18 129//18
f 129//18 79//18 135//18
f 135//19 80//19 136//19
f 79//19 80//19 135//19
f 136//20 78//20 134//20
f 80//20 78//20 136//20
f 134//21 81//21 137//21
f 78//21 81//21 134//21
f 137//22 77//22 132//22
f 81//22 77//22 137//22
f 132//23 76//23 133//23
f 133//24 76//24 123//24
f 77//23 76//23 132//23
f 76//24 67//24 123//24
f 141//25 129//25 116//25
f 142//25 141//25 116//25
f 143//25 74//25 129//25
f 143//25 129//25 141//25
f 61//25 143//25 144//25
f 61//25 74//25 143//25
f 145//26 37//26 146//26
f 146//27 45//27 147//27
f 37//26 45//26 146//26
f 147//28 47//28 148//28
f 45//27 47//27 147//27
f 148//29 46//29 149//29
f 47//28 46//28 148//28
f 46//29 55//29 149//29
f 150//30 54//30 151//30
f 149//31 54//31 150//31
f 55//31 54//31 149//31
f 151//32 64//32 144//32
f 54//30 64//30 151//30
f 64//32 61//32 144//32
f 37//16 145//16 152//16
f 13//16 152//16 153//16
f 13//16 37//16 152//16
f 36//25 154//25 33//25
f 154//25 155//25 33//25
f 36//25 99//25 154//25
f 99//25 156//25 154//25
f 156//25 96//25 157//25
f 99//25 96//25 156//25
f 101//32 99//32 36//32
f 101//32 36//32 38//32
f 104//30 38//30 41//30
f 104//30 101//30 38//30
f 109//31 41//31 49//31
f 109//31 104//31 41//31
f 111//28 51//28 56//28
f 111//29 49//29 51//29
f 111//29 109//29 49//29
f 114//28 111//28 56//28
f 115//26 58//26 65//26
f 115//27 56//27 58//27
f 115//27 114//27 56//27
f 121//26 115//26 65//26
f 158//24 34//24 31//24
f 159//24 158//24 31//24
f 160//22 29//22 27//22
f 160//23 31//23 29//23
f 160//23 159//23 31//23
f 161//22 160//22 27//22
f 162//20 28//20 30//20
f 162//21 27//21 28//21
f 162//21 161//21 27//21
f 163//19 30//19 32//19
f 163//20 162//20 30//20
f 164//19 163//19 32//19
f 155//18 32//18 33//18
f 155//18 164//18 32//18
f 124//16 121//16 68//16
f 68//16 121//16 65//16
f 158//17 165//17 34//17
f 34//17 165//17 35//17
f 124//33 68//33 72//33
f 128//33 124//33 72//33
f 127//34 72//34 71//34
f 127//34 128//34 72//34
f 125//35 71//35 69//35
f 125//35 127//35 71//35
f 126//36 70//36 75//36
f 126//37 69//37 70//37
f 126//37 125//37 69//37
f 131//36 126//36 75//36
f 130//38 75//38 73//38
f 130//38 131//38 75//38
f 122//39 73//39 66//39
f 122//39 130//39 73//39
f 166//12 167//12 63//12
f 166//12 63//12 62//12
f 168//10 60//10 50//10
f 168//11 62//11 60//11
f 168//11 166//11 62//11
f 169//10 168//10 50//10
f 170//8 44//8 40//8
f 170//9 50//9 44//9
f 170//9 169//9 50//9
f 171//7 40//7 39//7
f 171//8 170//8 40//8
f 172//7 171//7 39//7
f 165//6 39//6 35//6
f 165//6 172//6 39//6
f 167//1 173//1 63//1
f 173//1 66//1 63//1
f 174//1 119//1 175//1
f 175//1 122//1 173//1
f 173//1 122//1 66//1
f 119//1 122//1 175//1
f 176//25 24//25 138//25
f 153//25 138//25 82//25
f 153//25 176//25 138//25
f 13//25 153//25 82//25
f 177//26 178//26 100//26
f 100//26 178//26 107//26
f 107//27 179//27 108//27
f 178//27 179//27 107//27
f 108//28 180//28 106//28
f 179//28 180//28 108//28
f 106//29 181//29 113//29
f 180//29 181//29 106//29
f 113//31 182//31 112//31
f 181//31 182//31 113//31
f 112//30 183//30 120//30
f 182//30 183//30 112//30
f 120//32 142//32 116//32
f 183//32 142//32 120//32
f 184//16 177//16 100//16
f 24//16 184//16 100//16
f 176//16 184//16 24//16
f 97//24 185//24 186//24
f 94//24 97//24 186//24
f 92//22 187//22 188//22
f 92//23 186//23 187//23
f 92//23 94//23 186//23
f 90//22 92//22 188//22
f 91//20 189//20 190//20
f 91//21 188//21 189//21
f 91//21 90//21 188//21
f 93//20 91//20 190//20
f 95//19 190//19 191//19
f 95//19 93//19 190//19
f 96//18 191//18 157//18
f 96//18 95//18 191//18
f 97//17 98//17 185//17
f 185//17 98//17 192//17
f 118//12 119//12 174//12
f 118//12 174//12 193//12
f 117//10 194//10 195//10
f 117//11 193//11 194//11
f 117//11 118//11 193//11
f 110//10 117//10 195//10
f 105//8 196//8 197//8
f 105//9 195//9 196//9
f 105//9 110//9 195//9
f 103//8 105//8 197//8
f 102//7 197//7 198//7
f 102//7 103//7 197//7
f 98//6 198//6 192//6
f 98//6 102//6 198//6
f 144//25 143//25 141//25
f 144//25 141//25 142//25
f 152//3 145//3 199//3
f 199//3 145//3 200//3
f 145//3 146//3 200//3
f 146//3 147//3 200//3
f 147//3 148//3 200//3
f 148//3 149//3 200//3
f 144//3 200//3 151//3
f 151//3 200//3 150//3
f 150//3 200//3 149//3
f 201//4 170//4 152//4
f 201//4 169//4 170//4
f 170//4 171//4 152//4
f 201//4 168//4 169//4
f 171//4 172//4 152//4
f 201//4 166//4 168//4
f 172//4 165//4 152//4
f 201//4 167//4 166//4
f 165//4 153//4 152//4
f 165//4 158//4 153//4
f 158//4 159//4 153//4
f 159//4 160//4 153//4
f 160//4 161//4 153//4
f 163//4 202//4 162//4
f 162//4 202//4 161//4
f 161//4 202//4 153//4
f 163//4 164//4 202//4
f 164//4 155//4 202//4
f 156//25 157//25 154//25
f 154//25 157//25 155//25
f 174//1 175//1 167//1
f 167//1 175//1 173//1
f 202//25 203//25 153//25
f 153//25 203//25 176//25
f 181//4 180//4 204//4
f 180//4 179//4 204//4
f 179//4 178//4 204//4
f 204//4 177//4 205//4
f 178//4 177//4 204//4
f 177//4 184//4 205//4
f 204//14 142//14 183//14
f 204//4 183//4 182//4
f 204//4 182//4 181//4
f 203//3 188//3 176//3
f 189//3 188//3 203//3
f 188//3 187//3 176//3
f 203//3 190//3 189//3
f 187//3 186//3 176//3
f 203//3 191//3 190//3
f 186//3 185//3 176//3
f 203//3 157//3 191//3
f 176//3 192//3 184//3
f 185//3 192//3 176//3
f 192//3 198//3 184//3
f 198//3 197//3 184//3
f 197//3 196//3 184//3
f 195//3 206//3 196//3
f 194//3 206//3 195//3
f 196//3 206//3 184//3
f 194//3 193//3 206//3
f 193//3 174//3 206//3
f 144//25 142//25 200//25
f 200//25 142//25 204//25
f 207//16 208//16 209//16
f 209//16 208//16 210//16
f 184//1 199//1 205//1
f 184//1 152//1 199//1
f 155//25 157//25 202//25
f 202//25 157//25 203//25
f 174//1 167//1 206//1
f 206//1 167//1 201//1
f 206//1 201//1 184//1
f 184//1 201//1 152//1
